<mxfile host="app.diagrams.net" modified="2023-10-03T23:22:34.250Z" agent="Mozilla/5.0 (Windows NT 10.0; Win64; x64) AppleWebKit/537.36 (KHTML, like Gecko) Chrome/116.0.0.0 Safari/537.36 Edg/116.0.1938.76" version="22.0.2" etag="YnlVEjDdfodUXKnYdTc9" type="github">
  <diagram name="PÃ¡gina-1" id="r7mQsRADkBo8ca78ZAh8">
    <mxGraphModel>
      <root>
        <mxCell id="0" />
        <mxCell id="1" parent="0" />
      </root>
    </mxGraphModel>
  </diagram>
</mxfile>
